<mxfile host="Electron" modified="2024-02-23T16:50:09.340Z" agent="Mozilla/5.0 (Macintosh; Intel Mac OS X 10_15_7) AppleWebKit/537.36 (KHTML, like Gecko) draw.io/23.1.5 Chrome/120.0.6099.109 Electron/28.1.0 Safari/537.36" etag="LmkNR0bA1H7SAQj92P6M" version="23.1.5" type="device">
  <diagram name="Page-1" id="ht668-ByR8-m8cAWYHjP">
    <mxGraphModel dx="1686" dy="1839" grid="0" gridSize="10" guides="1" tooltips="1" connect="1" arrows="1" fold="1" page="1" pageScale="1" pageWidth="1169" pageHeight="827" math="0" shadow="0">
      <root>
        <mxCell id="0" />
        <mxCell id="1" parent="0" />
        <mxCell id="_lA7c4IzKAoyL8VmYBdA-26" value="ComfyUI Admin Panel" style="whiteSpace=wrap;html=1;aspect=fixed;verticalAlign=top;fillColor=none;strokeColor=#464749;dashed=1;fontStyle=0;fontColor=#404040;" parent="1" vertex="1">
          <mxGeometry x="561" y="-645" width="270" height="268" as="geometry" />
        </mxCell>
        <mxCell id="_lA7c4IzKAoyL8VmYBdA-20" value="" style="edgeStyle=orthogonalEdgeStyle;rounded=0;orthogonalLoop=1;jettySize=auto;html=1;" parent="1" source="_lA7c4IzKAoyL8VmYBdA-1" target="_lA7c4IzKAoyL8VmYBdA-2" edge="1">
          <mxGeometry relative="1" as="geometry" />
        </mxCell>
        <mxCell id="_lA7c4IzKAoyL8VmYBdA-1" value="Elastic Container Service" style="sketch=0;points=[[0,0,0],[0.25,0,0],[0.5,0,0],[0.75,0,0],[1,0,0],[0,1,0],[0.25,1,0],[0.5,1,0],[0.75,1,0],[1,1,0],[0,0.25,0],[0,0.5,0],[0,0.75,0],[1,0.25,0],[1,0.5,0],[1,0.75,0]];outlineConnect=0;fontColor=#232F3E;fillColor=#ED7100;strokeColor=#ffffff;dashed=0;verticalLabelPosition=bottom;verticalAlign=top;align=center;html=1;fontSize=12;fontStyle=0;aspect=fixed;shape=mxgraph.aws4.resourceIcon;resIcon=mxgraph.aws4.ecs;" parent="1" vertex="1">
          <mxGeometry x="551" y="-310" width="78" height="78" as="geometry" />
        </mxCell>
        <mxCell id="_lA7c4IzKAoyL8VmYBdA-21" value="" style="edgeStyle=orthogonalEdgeStyle;rounded=0;orthogonalLoop=1;jettySize=auto;html=1;" parent="1" source="_lA7c4IzKAoyL8VmYBdA-2" edge="1">
          <mxGeometry relative="1" as="geometry">
            <mxPoint x="822" y="-271" as="targetPoint" />
          </mxGeometry>
        </mxCell>
        <mxCell id="_lA7c4IzKAoyL8VmYBdA-2" value="EC2 Autoscaling" style="sketch=0;points=[[0,0,0],[0.25,0,0],[0.5,0,0],[0.75,0,0],[1,0,0],[0,1,0],[0.25,1,0],[0.5,1,0],[0.75,1,0],[1,1,0],[0,0.25,0],[0,0.5,0],[0,0.75,0],[1,0.25,0],[1,0.5,0],[1,0.75,0]];outlineConnect=0;fontColor=#232F3E;fillColor=#ED7100;strokeColor=#ffffff;dashed=0;verticalLabelPosition=bottom;verticalAlign=top;align=center;html=1;fontSize=12;fontStyle=0;aspect=fixed;shape=mxgraph.aws4.resourceIcon;resIcon=mxgraph.aws4.auto_scaling2;" parent="1" vertex="1">
          <mxGeometry x="701" y="-310" width="78" height="78" as="geometry" />
        </mxCell>
        <mxCell id="_lA7c4IzKAoyL8VmYBdA-27" style="edgeStyle=orthogonalEdgeStyle;rounded=0;orthogonalLoop=1;jettySize=auto;html=1;entryX=0;entryY=0.5;entryDx=0;entryDy=0;entryPerimeter=0;jumpSize=0;" parent="1" source="_lA7c4IzKAoyL8VmYBdA-4" target="_lA7c4IzKAoyL8VmYBdA-22" edge="1">
          <mxGeometry relative="1" as="geometry" />
        </mxCell>
        <mxCell id="_lA7c4IzKAoyL8VmYBdA-4" value="EC2 instance " style="points=[[0,0],[0.25,0],[0.5,0],[0.75,0],[1,0],[1,0.25],[1,0.5],[1,0.75],[1,1],[0.75,1],[0.5,1],[0.25,1],[0,1],[0,0.75],[0,0.5],[0,0.25]];outlineConnect=0;gradientColor=none;html=1;whiteSpace=wrap;fontSize=12;fontStyle=0;container=1;pointerEvents=0;collapsible=0;recursiveResize=0;shape=mxgraph.aws4.group;grIcon=mxgraph.aws4.group_ec2_instance_contents;strokeColor=#D86613;fillColor=none;verticalAlign=top;align=left;spacingLeft=30;fontColor=#D86613;dashed=0;" parent="1" vertex="1">
          <mxGeometry x="821" y="-335" width="140" height="128" as="geometry" />
        </mxCell>
        <mxCell id="_lA7c4IzKAoyL8VmYBdA-3" value="ComfyUI container" style="outlineConnect=0;dashed=0;verticalLabelPosition=bottom;verticalAlign=top;align=center;html=1;shape=mxgraph.aws4.container_2;fillColor=#ED7100;gradientColor=none;sketch=0;fontColor=#232F3E;strokeColor=none;fontStyle=0;aspect=fixed;pointerEvents=1;" parent="_lA7c4IzKAoyL8VmYBdA-4" vertex="1">
          <mxGeometry x="40" y="46.75" width="60" height="34.5" as="geometry" />
        </mxCell>
        <mxCell id="_lA7c4IzKAoyL8VmYBdA-14" style="edgeStyle=orthogonalEdgeStyle;rounded=0;orthogonalLoop=1;jettySize=auto;html=1;" parent="1" source="_lA7c4IzKAoyL8VmYBdA-5" target="_lA7c4IzKAoyL8VmYBdA-1" edge="1">
          <mxGeometry relative="1" as="geometry">
            <mxPoint x="531" y="-255" as="targetPoint" />
            <Array as="points">
              <mxPoint x="451" y="-349" />
              <mxPoint x="451" y="-274" />
            </Array>
          </mxGeometry>
        </mxCell>
        <mxCell id="_lA7c4IzKAoyL8VmYBdA-16" style="edgeStyle=orthogonalEdgeStyle;rounded=0;orthogonalLoop=1;jettySize=auto;html=1;entryX=0;entryY=0.5;entryDx=0;entryDy=0;" parent="1" source="_lA7c4IzKAoyL8VmYBdA-5" target="_lA7c4IzKAoyL8VmYBdA-26" edge="1">
          <mxGeometry relative="1" as="geometry">
            <Array as="points">
              <mxPoint x="451" y="-349" />
              <mxPoint x="451" y="-511" />
            </Array>
          </mxGeometry>
        </mxCell>
        <mxCell id="_lA7c4IzKAoyL8VmYBdA-5" value="Application Load Balancer" style="outlineConnect=0;dashed=0;verticalLabelPosition=bottom;verticalAlign=top;align=center;html=1;shape=mxgraph.aws4.application_load_balancer;fillColor=#8C4FFF;gradientColor=none;sketch=0;fontColor=#232F3E;strokeColor=none;fontStyle=0;aspect=fixed;pointerEvents=1;" parent="1" vertex="1">
          <mxGeometry x="261" y="-385" width="69" height="72" as="geometry" />
        </mxCell>
        <mxCell id="_lA7c4IzKAoyL8VmYBdA-12" value="" style="edgeStyle=orthogonalEdgeStyle;rounded=0;orthogonalLoop=1;jettySize=auto;html=1;exitX=1;exitY=0.5;exitDx=0;exitDy=0;exitPerimeter=0;" parent="1" source="_lA7c4IzKAoyL8VmYBdA-6" target="_lA7c4IzKAoyL8VmYBdA-5" edge="1">
          <mxGeometry relative="1" as="geometry" />
        </mxCell>
        <mxCell id="_lA7c4IzKAoyL8VmYBdA-13" value="" style="edgeStyle=orthogonalEdgeStyle;rounded=0;orthogonalLoop=1;jettySize=auto;html=1;exitX=0;exitY=0.5;exitDx=0;exitDy=0;exitPerimeter=0;" parent="1" source="_lA7c4IzKAoyL8VmYBdA-7" target="_lA7c4IzKAoyL8VmYBdA-5" edge="1">
          <mxGeometry relative="1" as="geometry" />
        </mxCell>
        <mxCell id="_lA7c4IzKAoyL8VmYBdA-11" value="" style="edgeStyle=orthogonalEdgeStyle;rounded=0;orthogonalLoop=1;jettySize=auto;html=1;" parent="1" source="_lA7c4IzKAoyL8VmYBdA-8" target="_lA7c4IzKAoyL8VmYBdA-5" edge="1">
          <mxGeometry relative="1" as="geometry" />
        </mxCell>
        <mxCell id="_lA7c4IzKAoyL8VmYBdA-8" value="Authenticated&lt;br&gt;User" style="sketch=0;outlineConnect=0;fontColor=#232F3E;gradientColor=none;fillColor=#232F3D;strokeColor=none;dashed=0;verticalLabelPosition=bottom;verticalAlign=top;align=center;html=1;fontSize=12;fontStyle=0;aspect=fixed;pointerEvents=1;shape=mxgraph.aws4.authenticated_user;" parent="1" vertex="1">
          <mxGeometry x="31" y="-381.5" width="65" height="65" as="geometry" />
        </mxCell>
        <mxCell id="_lA7c4IzKAoyL8VmYBdA-15" value="Admin panel" style="sketch=0;outlineConnect=0;fontColor=#232F3E;fillColor=#ED7100;strokeColor=#ffffff;dashed=0;verticalLabelPosition=bottom;verticalAlign=top;align=center;html=1;fontSize=12;fontStyle=0;aspect=fixed;shape=mxgraph.aws4.resourceIcon;resIcon=mxgraph.aws4.lambda;points=[[0,0,0],[0.25,0,0],[0.5,0,0],[0.75,0,0],[1,0,0],[0,1,0],[0.25,1,0],[0.5,1,0],[0.75,1,0],[1,1,0],[0,0.25,0],[0,0.5,0],[0,0.75,0],[1,0.25,0],[1,0.5,0],[1,0.75,0]];" parent="1" vertex="1">
          <mxGeometry x="596" y="-603" width="78" height="78" as="geometry" />
        </mxCell>
        <mxCell id="_lA7c4IzKAoyL8VmYBdA-17" value="Restart container" style="sketch=0;outlineConnect=0;fontColor=#232F3E;fillColor=#ED7100;strokeColor=#ffffff;dashed=0;verticalLabelPosition=bottom;verticalAlign=top;align=center;html=1;fontSize=12;fontStyle=0;aspect=fixed;shape=mxgraph.aws4.resourceIcon;resIcon=mxgraph.aws4.lambda;points=[[0,0,0],[0.25,0,0],[0.5,0,0],[0.75,0,0],[1,0,0],[0,1,0],[0.25,1,0],[0.5,1,0],[0.75,1,0],[1,1,0],[0,0.25,0],[0,0.5,0],[0,0.75,0],[1,0.25,0],[1,0.5,0],[1,0.75,0]];" parent="1" vertex="1">
          <mxGeometry x="596" y="-495" width="78" height="78" as="geometry" />
        </mxCell>
        <mxCell id="_lA7c4IzKAoyL8VmYBdA-18" value="Shutdown EC2" style="sketch=0;outlineConnect=0;fontColor=#232F3E;fillColor=#ED7100;strokeColor=#ffffff;dashed=0;verticalLabelPosition=bottom;verticalAlign=top;align=center;html=1;fontSize=12;fontStyle=0;aspect=fixed;shape=mxgraph.aws4.resourceIcon;resIcon=mxgraph.aws4.lambda;points=[[0,0,0],[0.25,0,0],[0.5,0,0],[0.75,0,0],[1,0,0],[0,1,0],[0.25,1,0],[0.5,1,0],[0.75,1,0],[1,1,0],[0,0.25,0],[0,0.5,0],[0,0.75,0],[1,0.25,0],[1,0.5,0],[1,0.75,0]];" parent="1" vertex="1">
          <mxGeometry x="711" y="-603" width="78" height="78" as="geometry" />
        </mxCell>
        <mxCell id="_lA7c4IzKAoyL8VmYBdA-19" value="ScaleUp EC2" style="sketch=0;outlineConnect=0;fontColor=#232F3E;fillColor=#ED7100;strokeColor=#ffffff;dashed=0;verticalLabelPosition=bottom;verticalAlign=top;align=center;html=1;fontSize=12;fontStyle=0;aspect=fixed;shape=mxgraph.aws4.resourceIcon;resIcon=mxgraph.aws4.lambda;points=[[0,0,0],[0.25,0,0],[0.5,0,0],[0.75,0,0],[1,0,0],[0,1,0],[0.25,1,0],[0.5,1,0],[0.75,1,0],[1,1,0],[0,0.25,0],[0,0.5,0],[0,0.75,0],[1,0.25,0],[1,0.5,0],[1,0.75,0]];" parent="1" vertex="1">
          <mxGeometry x="711" y="-495" width="78" height="78" as="geometry" />
        </mxCell>
        <mxCell id="_lA7c4IzKAoyL8VmYBdA-24" value="" style="edgeStyle=orthogonalEdgeStyle;rounded=0;orthogonalLoop=1;jettySize=auto;html=1;endArrow=classic;endFill=1;dashed=1;" parent="1" source="_lA7c4IzKAoyL8VmYBdA-22" target="_lA7c4IzKAoyL8VmYBdA-23" edge="1">
          <mxGeometry relative="1" as="geometry" />
        </mxCell>
        <mxCell id="_lA7c4IzKAoyL8VmYBdA-22" value="Amazon Cloudwatch" style="sketch=0;points=[[0,0,0],[0.25,0,0],[0.5,0,0],[0.75,0,0],[1,0,0],[0,1,0],[0.25,1,0],[0.5,1,0],[0.75,1,0],[1,1,0],[0,0.25,0],[0,0.5,0],[0,0.75,0],[1,0.25,0],[1,0.5,0],[1,0.75,0]];points=[[0,0,0],[0.25,0,0],[0.5,0,0],[0.75,0,0],[1,0,0],[0,1,0],[0.25,1,0],[0.5,1,0],[0.75,1,0],[1,1,0],[0,0.25,0],[0,0.5,0],[0,0.75,0],[1,0.25,0],[1,0.5,0],[1,0.75,0]];outlineConnect=0;fontColor=#232F3E;fillColor=#E7157B;strokeColor=#ffffff;dashed=0;verticalLabelPosition=bottom;verticalAlign=top;align=center;html=1;fontSize=12;fontStyle=0;aspect=fixed;shape=mxgraph.aws4.resourceIcon;resIcon=mxgraph.aws4.cloudwatch_2;" parent="1" vertex="1">
          <mxGeometry x="1011" y="-483" width="78" height="78" as="geometry" />
        </mxCell>
        <mxCell id="0u2oyd0TBL4DUJt1gTOr-2" style="edgeStyle=orthogonalEdgeStyle;rounded=0;orthogonalLoop=1;jettySize=auto;html=1;" parent="1" source="_lA7c4IzKAoyL8VmYBdA-23" target="0u2oyd0TBL4DUJt1gTOr-1" edge="1">
          <mxGeometry relative="1" as="geometry">
            <Array as="points">
              <mxPoint x="1041" y="-599" />
              <mxPoint x="1041" y="-599" />
            </Array>
          </mxGeometry>
        </mxCell>
        <mxCell id="_lA7c4IzKAoyL8VmYBdA-23" value="Cloudwatch Alarms" style="sketch=0;outlineConnect=0;fontColor=#232F3E;gradientColor=none;fillColor=#E7157B;strokeColor=none;dashed=0;verticalLabelPosition=bottom;verticalAlign=top;align=center;html=1;fontSize=12;fontStyle=0;aspect=fixed;pointerEvents=1;shape=mxgraph.aws4.alarm;labelBackgroundColor=none;spacingTop=0;" parent="1" vertex="1">
          <mxGeometry x="1011" y="-617" width="78" height="78" as="geometry" />
        </mxCell>
        <mxCell id="0u2oyd0TBL4DUJt1gTOr-4" style="rounded=0;orthogonalLoop=1;jettySize=auto;html=1;entryX=1;entryY=0.25;entryDx=0;entryDy=0;" parent="1" source="0u2oyd0TBL4DUJt1gTOr-1" target="_lA7c4IzKAoyL8VmYBdA-26" edge="1">
          <mxGeometry relative="1" as="geometry" />
        </mxCell>
        <mxCell id="0u2oyd0TBL4DUJt1gTOr-1" value="Event Rule" style="sketch=0;outlineConnect=0;fontColor=#232F3E;gradientColor=none;fillColor=#E7157B;strokeColor=none;dashed=0;verticalLabelPosition=bottom;verticalAlign=top;align=center;html=1;fontSize=12;fontStyle=0;aspect=fixed;pointerEvents=1;shape=mxgraph.aws4.rule_3;" parent="1" vertex="1">
          <mxGeometry x="891" y="-612" width="78" height="68" as="geometry" />
        </mxCell>
        <mxCell id="0u2oyd0TBL4DUJt1gTOr-7" value="AWS Cloud" style="points=[[0,0],[0.25,0],[0.5,0],[0.75,0],[1,0],[1,0.25],[1,0.5],[1,0.75],[1,1],[0.75,1],[0.5,1],[0.25,1],[0,1],[0,0.75],[0,0.5],[0,0.25]];outlineConnect=0;gradientColor=none;html=1;whiteSpace=wrap;fontSize=12;fontStyle=0;container=0;pointerEvents=0;collapsible=0;recursiveResize=0;shape=mxgraph.aws4.group;grIcon=mxgraph.aws4.group_aws_cloud_alt;strokeColor=#232F3E;fillColor=none;verticalAlign=top;align=left;spacingLeft=30;fontColor=#232F3E;dashed=0;" parent="1" vertex="1">
          <mxGeometry x="131" y="-680" width="1000" height="520" as="geometry" />
        </mxCell>
        <mxCell id="_lA7c4IzKAoyL8VmYBdA-6" value="Amazon Cognito" style="sketch=0;points=[[0,0,0],[0.25,0,0],[0.5,0,0],[0.75,0,0],[1,0,0],[0,1,0],[0.25,1,0],[0.5,1,0],[0.75,1,0],[1,1,0],[0,0.25,0],[0,0.5,0],[0,0.75,0],[1,0.25,0],[1,0.5,0],[1,0.75,0]];outlineConnect=0;fontColor=#232F3E;fillColor=#DD344C;strokeColor=#ffffff;dashed=0;verticalLabelPosition=bottom;verticalAlign=top;align=center;html=1;fontSize=12;fontStyle=0;aspect=fixed;shape=mxgraph.aws4.resourceIcon;resIcon=mxgraph.aws4.cognito;" parent="1" vertex="1">
          <mxGeometry x="183" y="-565" width="78" height="78" as="geometry" />
        </mxCell>
        <mxCell id="_lA7c4IzKAoyL8VmYBdA-7" value="AWS Certificate Manager" style="sketch=0;points=[[0,0,0],[0.25,0,0],[0.5,0,0],[0.75,0,0],[1,0,0],[0,1,0],[0.25,1,0],[0.5,1,0],[0.75,1,0],[1,1,0],[0,0.25,0],[0,0.5,0],[0,0.75,0],[1,0.25,0],[1,0.5,0],[1,0.75,0]];outlineConnect=0;fontColor=#232F3E;fillColor=#DD344C;strokeColor=#ffffff;dashed=0;verticalLabelPosition=bottom;verticalAlign=top;align=center;html=1;fontSize=12;fontStyle=0;aspect=fixed;shape=mxgraph.aws4.resourceIcon;resIcon=mxgraph.aws4.certificate_manager_3;" parent="1" vertex="1">
          <mxGeometry x="330" y="-565" width="78" height="78" as="geometry" />
        </mxCell>
        <mxCell id="9bOVUWf1RgmmtaJf45Dk-3" style="edgeStyle=orthogonalEdgeStyle;rounded=0;orthogonalLoop=1;jettySize=auto;html=1;exitX=1;exitY=0.75;exitDx=0;exitDy=0;entryX=0;entryY=0.5;entryDx=0;entryDy=0;entryPerimeter=0;" edge="1" parent="1" source="_lA7c4IzKAoyL8VmYBdA-26" target="_lA7c4IzKAoyL8VmYBdA-22">
          <mxGeometry relative="1" as="geometry" />
        </mxCell>
      </root>
    </mxGraphModel>
  </diagram>
</mxfile>
